<?xml version="1.0" standalone="no"?><!DOCTYPE svg PUBLIC "-//W3C//DTD SVG 1.1//EN" "http://www.w3.org/Graphics/SVG/1.1/DTD/svg11.dtd"><svg t="1719468278960" class="icon" viewBox="0 0 1024 1024" version="1.1" xmlns="http://www.w3.org/2000/svg" p-id="1346" xmlns:xlink="http://www.w3.org/1999/xlink" width="256" height="256"><path d="M71.2704 212.4288a336.4352 125.7984 0 1 0 672.8704 0 336.4352 125.7984 0 1 0-672.8704 0Z" fill="#F6AD2A" p-id="1347"></path><path d="M742.4 199.68c-17.3056-63.3856-160.5632-112.64-334.6944-112.64-185.8048 0-336.4352 56.32-336.4352 125.7984s150.6304 125.3888 336.4352 125.3888c135.4752 0 252.2112-29.952 305.5104-73.1136q15.9232-32 29.184-65.4336z" fill="#F9BF34" p-id="1348"></path><path d="M407.7056 86.6304c-185.8048 0-336.4352 56.32-336.4352 125.7984C71.2704 260.4544 143.36 302.08 249.0368 323.3792a872.192 872.192 0 0 0 209.6128-235.52q-24.9344-1.2288-50.944-1.2288z" fill="#FAC93A" p-id="1349"></path><path d="M407.7056 495.872c171.52 0 299.4688-49.8176 336.4352-103.3728v-128c0 69.5296-150.6304 125.8496-336.4352 125.8496s-336.4352-56.32-336.4352-125.8496v128c36.9664 53.5552 164.9152 103.3728 336.4352 103.3728z" fill="#F6AD2A" p-id="1350"></path><path d="M71.2704 264.2432v128C108.2368 445.7984 236.1856 495.616 407.7056 495.616a781.1072 781.1072 0 0 0 154.6752-14.336 887.04 887.04 0 0 0 107.0592-137.7792c-61.44 28.5184-156.0064 46.7968-261.7344 46.7968-185.8048-0.2048-336.4352-56.5248-336.4352-126.0544z" fill="#F9BF34" p-id="1351"></path><path d="M71.2704 264.2432v128a120.832 120.832 0 0 0 25.6 26.0096 873.9328 873.9328 0 0 0 98.6624-56.3712c-75.8272-23.04-124.2624-58.2144-124.2624-97.6384z" fill="#FAC93A" p-id="1352"></path><path d="M728.6784 480.256a231.68 231.68 0 1 0 231.6288 231.424 231.68 231.68 0 0 0-231.6288-231.424z m-2.9696 346.368s-74.24-89.7024-122.0608-113.9712c75.776-41.9328 120.8832-118.4256 120.8832-118.4256 12.3392 28.6208 75.4688 93.3888 115.2 116.224a416.8704 416.8704 0 0 0-114.0224 116.1728z" fill="#F49D22" p-id="1353"></path><path d="M728.6784 480.256a231.5264 231.5264 0 0 0-175.2064 383.0784 888.5248 888.5248 0 0 0 126.464-87.3472c-24.064-24.7296-53.248-51.6608-76.288-63.3344 75.776-41.9328 120.8832-118.4256 120.8832-118.4256 7.5776 17.6128 34.5088 48.9984 63.3344 75.776a885.1968 885.1968 0 0 0 93.7472-131.9936 230.4 230.4 0 0 0-152.9344-57.7536zM454.8608 703.8464c-15.36 0.768-31.1296 1.2288-47.1552 1.2288-144.6912 0-266.7008-32.4096-336.4352-83.3024v68.864c0 69.4784 150.6304 125.7984 336.4352 125.7984 23.296 0 46.08-0.8704 67.9936-2.56a338.176 338.176 0 0 1-20.8384-110.0288z" fill="#F6AD2A" p-id="1354"></path><path d="M71.2704 621.7728v68.864c0 17.3568 9.3696 33.8432 26.368 48.896a877.7728 877.7728 0 0 0 156.9792-47.6672c-76.544-14.0288-140.032-38.5024-183.3472-70.0928z" fill="#F9BF34" p-id="1355"></path><path d="M509.952 542.0032a894.1056 894.1056 0 0 1-102.4 5.6832c-144.6912 0-266.7008-32.4096-336.4352-83.3024v85.4528c36.9664 53.6064 164.9152 103.424 336.4352 103.424 17.7152 0 34.9696-0.5632 51.712-1.5872a246.9376 246.9376 0 0 1 50.688-109.6704z" fill="#F6AD2A" p-id="1356"></path><path d="M407.7056 547.84c-144.6912 0-266.7008-32.4096-336.4352-83.3024v85.4528c32.0512 46.4384 132.352 90.0096 270.1312 100.8128a887.0912 887.0912 0 0 0 155.5968-107.52c-28.5696 2.8672-58.368 4.5568-89.2928 4.5568z" fill="#F9BF34" p-id="1357"></path><path d="M728.6784 909.4144a195.4304 195.4304 0 1 1 195.4304-195.4304 195.6864 195.6864 0 0 1-195.4304 195.4304z m0-367.9744a172.544 172.544 0 1 0 172.4416 172.544 172.7488 172.7488 0 0 0-172.4416-172.544z" fill="#F7F8F8" p-id="1358"></path></svg>